<svg xmlns="http://www.w3.org/2000/svg" width="29" height="17" viewBox="0 0 29 17"><g fill="none" stroke="#fff" stroke-width="1"><rect width="29" height="17" rx="8.5" stroke="none"/><rect x="0.5" y="0.5" width="28" height="16" rx="8" fill="none"/></g><g transform="translate(10.231 5.107)"><path d="M22.918,34.1a.328.328,0,0,1,.464,0l3.059,3.065a.328.328,0,0,1,0,.464L23.382,40.69a.328.328,0,0,1-.465-.464l2.5-2.5-7.088,0a.328.328,0,0,1,0-.657l7.09,0-2.5-2.5A.328.328,0,0,1,22.918,34.1Z" transform="translate(-18 -34)" fill="#fff" fill-rule="evenodd"/></g></svg>