<svg id="Grupo_9557" data-name="Grupo 9557" xmlns="http://www.w3.org/2000/svg" width="103.861" height="29.776" viewBox="0 0 103.861 29.776">
  <path id="Caminho_11703" data-name="Caminho 11703" d="M98.269,29.984H5.592A5.592,5.592,0,0,1,0,24.392V5.8A5.592,5.592,0,0,1,5.592.208H98.269A5.592,5.592,0,0,1,103.861,5.8V24.392a5.592,5.592,0,0,1-5.592,5.592" transform="translate(0 -0.208)"/>
  <path id="Caminho_11704" data-name="Caminho 11704" d="M147.922,300.378l-9.286,5.329A2.534,2.534,0,0,1,135,304.392l8.468-8.468Z" transform="translate(-128.208 -281.046)" fill="#ea4335"/>
  <path id="Caminho_11705" data-name="Caminho 11705" d="M140.567,136.191l-8.468,8.468a2.541,2.541,0,0,1-.154-.879V128.624a2.537,2.537,0,0,1,.16-.895Z" transform="translate(-125.308 -121.313)" fill="#4285f4"/>
  <path id="Caminho_11706" data-name="Caminho 11706" d="M148.028,100.792l-4.448,4.448-8.462-8.462a2.534,2.534,0,0,1,3.628-1.3Z" transform="translate(-128.32 -90.362)" fill="#34a853"/>
  <path id="Caminho_11707" data-name="Caminho 11707" d="M311.7,214.162l-3.932,2.257-4.454-4.454,4.448-4.448,3.936,2.254a2.531,2.531,0,0,1,0,4.39" transform="translate(-288.052 -197.087)" fill="#fbbc04"/>
  <path id="Caminho_11708" data-name="Caminho 11708" d="M625.321,251.129h2.432a2.608,2.608,0,0,1-.967,1.769,2.942,2.942,0,0,1-1.952.733,3.665,3.665,0,0,1-3.538-3.664,3.565,3.565,0,0,1,1.049-2.628,3.5,3.5,0,0,1,2.6-1.068,3.56,3.56,0,0,1,2.925,1.6l1.049-1a6.163,6.163,0,0,0-1.864-1.516,5.13,5.13,0,0,0-5.749,1.017,5.094,5.094,0,0,0-.025,7.164,4.751,4.751,0,0,0,3.506,1.478,4.418,4.418,0,0,0,3.456-1.529,4.138,4.138,0,0,0,.853-1.466,6.661,6.661,0,0,0,.259-1.946v-.322h-4.031Z" transform="translate(-588.635 -232.571)" fill="#fff"/>
  <path id="Caminho_11709" data-name="Caminho 11709" d="M828.664,316.836a3.2,3.2,0,0,0-2.325.935,3.058,3.058,0,0,0-.954,2.268,3.186,3.186,0,0,0,.935,2.35,3.127,3.127,0,0,0,2.319.948,3.261,3.261,0,0,0,2.357-.929,3.295,3.295,0,0,0,.006-4.631,3.215,3.215,0,0,0-2.338-.941M830,321.53a1.915,1.915,0,0,1-2.666-.006,2.075,2.075,0,0,1-.493-1.459,1.976,1.976,0,0,1,.505-1.4,1.891,1.891,0,0,1,2.653,0,2.31,2.31,0,0,1,0,2.868" transform="translate(-783.86 -300.906)" fill="#fff"/>
  <path id="Caminho_11710" data-name="Caminho 11710" d="M975.209,316.836a3.2,3.2,0,0,0-2.325.935,3.058,3.058,0,0,0-.954,2.268,3.186,3.186,0,0,0,.935,2.35,3.127,3.127,0,0,0,2.319.948,3.26,3.26,0,0,0,2.356-.929,3.295,3.295,0,0,0,.006-4.631,3.215,3.215,0,0,0-2.338-.941m1.333,4.694a1.915,1.915,0,0,1-2.666-.006,2.075,2.075,0,0,1-.493-1.459,1.977,1.977,0,0,1,.505-1.4,1.891,1.891,0,0,1,2.654,0,2.31,2.31,0,0,1,0,2.868" transform="translate(-923.032 -300.906)" fill="#fff"/>
  <path id="Caminho_11711" data-name="Caminho 11711" d="M1123.3,317.7a2.48,2.48,0,0,0-1.933-.865,2.613,2.613,0,0,0-2.135,1,3.55,3.55,0,0,0-.752,2.287,3.371,3.371,0,0,0,.809,2.306,2.621,2.621,0,0,0,2.06.91,2.654,2.654,0,0,0,1.952-.866v.859q0,1.914-1.56,1.914a1.527,1.527,0,0,1-1.289-.575,1.616,1.616,0,0,1-.272-.7h-1.428a2.711,2.711,0,0,0,.948,1.889,3.061,3.061,0,0,0,2.028.663,2.878,2.878,0,0,0,2.293-.96,2.6,2.6,0,0,0,.594-1.194,5.326,5.326,0,0,0,.079-.584q.029-.332.028-.768v-6.008H1123.3Zm-.379,3.772a1.561,1.561,0,0,1-1.289.594,1.531,1.531,0,0,1-1.276-.588,2.472,2.472,0,0,1,0-2.767,1.53,1.53,0,0,1,1.276-.6,1.587,1.587,0,0,1,1.245.55,2.072,2.072,0,0,1,.48,1.434,2.115,2.115,0,0,1-.436,1.377" transform="translate(-1062.205 -300.906)" fill="#fff"/>
  <rect id="Retângulo_18243" data-name="Retângulo 18243" width="1.421" height="9.944" transform="translate(63.322 12.309)" fill="#fff"/>
  <path id="Caminho_11712" data-name="Caminho 11712" d="M1306.917,321.814a1.454,1.454,0,0,1-.878.253,1.5,1.5,0,0,1-1.118-.442,1.868,1.868,0,0,1-.493-1.207h4.41l.006-.335a3.405,3.405,0,0,0-.783-2.382,3.082,3.082,0,0,0-4.309.025,3.409,3.409,0,0,0-.809,2.363,3.317,3.317,0,0,0,.834,2.363,2.9,2.9,0,0,0,2.211.884,3.726,3.726,0,0,0,.891-.1,2.66,2.66,0,0,0,.764-.319,3.12,3.12,0,0,0,.663-.556,4.774,4.774,0,0,0,.588-.812l-1.2-.67a3.6,3.6,0,0,1-.777.935m-2.192-3.032a1.437,1.437,0,0,1,.319-.357,1.392,1.392,0,0,1,.414-.228,1.473,1.473,0,0,1,.486-.079,1.362,1.362,0,0,1,1.434,1.137h-2.856a1.656,1.656,0,0,1,.2-.474" transform="translate(-1237.391 -300.906)" fill="#fff"/>
  <path id="Caminho_11713" data-name="Caminho 11713" d="M1495.963,248.82a7.525,7.525,0,0,0-1.851-.171h-1.668V258.4h1.472v-3.961h.682a3.55,3.55,0,0,0,2.42-.783,2.674,2.674,0,0,0,.9-2.123,2.777,2.777,0,0,0-.84-2.072,2.483,2.483,0,0,0-1.112-.644m-1.5,4.258h-.55v-3.07h.486q2.091,0,2.091,1.51,0,1.561-2.028,1.56" transform="translate(-1417.358 -236.15)" fill="#fff"/>
  <rect id="Retângulo_18244" data-name="Retângulo 18244" width="1.421" height="9.755" transform="translate(81.256 12.499)" fill="#fff"/>
  <path id="Caminho_11714" data-name="Caminho 11714" d="M1662.059,317.72a2.617,2.617,0,0,0-1.927-.884,2.668,2.668,0,0,0-2.072.922,3.324,3.324,0,0,0-.828,2.306,3.43,3.43,0,0,0,.828,2.35,2.73,2.73,0,0,0,4,.1v.645h1.428v-6.153h-1.428Zm-.4,3.8a1.632,1.632,0,0,1-1.276.543,1.551,1.551,0,0,1-1.226-.562,2.143,2.143,0,0,1-.474-1.44,2.049,2.049,0,0,1,.486-1.39,1.571,1.571,0,0,1,1.226-.556,1.609,1.609,0,0,1,1.264.55,2.339,2.339,0,0,1,0,2.856" transform="translate(-1573.856 -300.906)" fill="#fff"/>
  <path id="Caminho_11715" data-name="Caminho 11715" d="M1800.73,320.227l-1.756,3.538-1.883-3.538h-1.649l2.767,5.01-2.4,4.492h1.624l4.9-9.5Z" transform="translate(-1705.113 -304.127)" fill="#fff"/>
  <path id="Caminho_11716" data-name="Caminho 11716" d="M622.608,85.39h2.043v.163a3.376,3.376,0,0,1-.131.986,2.1,2.1,0,0,1-.432.743,2.24,2.24,0,0,1-1.752.775,2.408,2.408,0,0,1-1.778-.749,2.581,2.581,0,0,1,2.927-4.148,3.124,3.124,0,0,1,.945.769l-.532.509a1.8,1.8,0,0,0-1.483-.81,1.772,1.772,0,0,0-1.316.541,1.807,1.807,0,0,0-.532,1.332,1.858,1.858,0,0,0,1.794,1.858,1.491,1.491,0,0,0,.99-.372,1.322,1.322,0,0,0,.49-.9h-1.233Z" transform="translate(-588.635 -78.763)" fill="#fff"/>
  <path id="Caminho_11717" data-name="Caminho 11717" d="M733.912,85.5H731.93v1.188h1.925v.7H731.93v1.653h1.982v.7h-2.729V84.8h2.729Z" transform="translate(-694.397 -80.547)" fill="#fff"/>
  <path id="Caminho_11718" data-name="Caminho 11718" d="M802.607,85.5v4.244h-.746V85.5h-1.137v-.7h3.017v.7Z" transform="translate(-760.438 -80.547)" fill="#fff"/>
  <rect id="Retângulo_18245" data-name="Retângulo 18245" width="0.746" height="4.945" transform="translate(45.777 4.256)" fill="#fff"/>
  <path id="Caminho_11719" data-name="Caminho 11719" d="M941.408,85.515v4.244h-.746V85.515h-1.137v-.7h3.017v.7Z" transform="translate(-892.256 -80.557)" fill="#fff"/>
  <path id="Caminho_11720" data-name="Caminho 11720" d="M1035.2,85.51a2.423,2.423,0,0,1,.765-1.794,2.52,2.52,0,0,1,1.832-.749,2.586,2.586,0,0,1,2.572,2.572,2.432,2.432,0,0,1-.762,1.81,2.613,2.613,0,0,1-3.568.083,2.43,2.43,0,0,1-.839-1.922m.753.01a1.787,1.787,0,0,0,.551,1.348,1.825,1.825,0,0,0,2.578-.01,1.919,1.919,0,0,0,.006-2.652,1.844,1.844,0,0,0-2.6,0,1.784,1.784,0,0,0-.532,1.313" transform="translate(-983.12 -78.803)" fill="#fff"/>
  <path id="Caminho_11721" data-name="Caminho 11721" d="M1153.189,88.251V84.814h.746v4.945h-.746l-2.269-3.462v3.462h-.746V84.814h.746Z" transform="translate(-1092.307 -80.558)" fill="#fff"/>
</svg>
