<svg id="Grupo_9384" data-name="Grupo 9384" xmlns="http://www.w3.org/2000/svg" xmlns:xlink="http://www.w3.org/1999/xlink" width="176" height="51.86" viewBox="0 0 176 51.86">
  <defs>
    <clipPath id="clip-path">
      <rect id="Retângulo_18112" data-name="Retângulo 18112" width="176" height="51.86" fill="none"/>
    </clipPath>
  </defs>
  <g id="Grupo_9335" data-name="Grupo 9335" clip-path="url(#clip-path)">
    <path id="Caminho_11337" data-name="Caminho 11337" d="M57.125,14.453a.712.712,0,0,0,.5-.215l3.526-3.515a2.826,2.826,0,0,0,1.115.251,2.582,2.582,0,1,0-2.591-2.583,2.52,2.52,0,0,0,.4,1.363L56.8,13.019h-6.26V7.783h1.835a2.591,2.591,0,1,0,2.482-3.336,2.588,2.588,0,0,0-2.482,1.865H50.541V5.989A6.044,6.044,0,0,0,38.991,3.551c-.18,0-.36-.036-.54-.036a6.415,6.415,0,0,0-6.4,6.169,3.464,3.464,0,0,0-2.734,3.371.72.72,0,0,0,1.439,0,2.008,2.008,0,0,1,2.015-2.008.72.72,0,0,0,.719-.717.458.458,0,0,0-.036-.215.458.458,0,0,0,.036-.215,4.965,4.965,0,0,1,9.93,0,.72.72,0,0,0,1.439,0,6.392,6.392,0,0,0-4.39-6.061,4.538,4.538,0,0,1,4.03-2.4A4.607,4.607,0,0,1,49.1,6.025v.323H47.3a.717.717,0,1,0,0,1.435h1.8v5.236H42.949A2.638,2.638,0,0,1,40.323,10.4a.719.719,0,0,0-1.439,0,4.078,4.078,0,0,0,4.066,4.052H49.1V39.164H46.763A4.078,4.078,0,0,0,42.7,43.217a.719.719,0,0,0,1.439,0A2.637,2.637,0,0,1,46.763,40.6H49.1v5.308a1.464,1.464,0,0,1-.036.395H46.8a.717.717,0,1,0,0,1.434h1.907A4.636,4.636,0,0,1,44.5,50.5a4.5,4.5,0,0,1-4.03-2.4,6.341,6.341,0,0,0,2.41-1.434.712.712,0,1,0-.971-1.04,5.082,5.082,0,0,1-3.418,1.363,4.976,4.976,0,0,1-4.965-4.878,4.083,4.083,0,0,0,1.871-1.936.708.708,0,0,0-1.3-.574,2.531,2.531,0,0,1-3.346,1.291.707.707,0,1,0-.576,1.291,4.03,4.03,0,0,0,1.583.323,1.219,1.219,0,0,0,.36-.036,6.387,6.387,0,0,0,6.369,5.882,2.716,2.716,0,0,0,.54-.036,6.043,6.043,0,0,0,11.405-1.183v-.036a7.08,7.08,0,0,0,.144-1.256V44.293h4.281L56.8,46.23a2.419,2.419,0,0,0-.324,1.255A2.591,2.591,0,1,0,59.068,44.9a2.4,2.4,0,0,0-1.223.323l-2.159-2.152a.711.711,0,0,0-.5-.215H50.541v-4.3h7.052a2.583,2.583,0,1,0,0-1.435H50.541v-18h8.6l2.087,2.08a.7.7,0,0,0,1.007,0,.692.692,0,0,0,0-1l-2.3-2.3a.712.712,0,0,0-.5-.215H50.541V14.453Zm5.181-7.209a1.148,1.148,0,1,1-1.152,1.148,1.135,1.135,0,0,1,1.152-1.148M54.858,5.918a1.148,1.148,0,1,1-1.151,1.148,1.135,1.135,0,0,1,1.151-1.148M59,46.445a1.148,1.148,0,1,1-1.152,1.148A1.158,1.158,0,0,1,59,46.445m1.079-9.684a1.148,1.148,0,1,1-1.151,1.148,1.181,1.181,0,0,1,1.151-1.148" transform="translate(-15.569 0)" fill="#5cb2e4"/>
    <path id="Caminho_11338" data-name="Caminho 11338" d="M56.251,72.849a.72.72,0,0,0-1.439,0,1.839,1.839,0,0,1-1.835,1.829.717.717,0,1,0,0,1.435,3.258,3.258,0,0,0,3.274-3.264" transform="translate(-27.755 -38.311)" fill="#5cb2e4"/>
    <path id="Caminho_11339" data-name="Caminho 11339" d="M49.262,50.581a2.589,2.589,0,0,0-2.483,1.865H31.021l-1.115-1.937a.7.7,0,0,0-.611-.359.668.668,0,0,0-.612.323l-1.691,2.69L25.12,47.891a.7.7,0,0,0-.684-.466.738.738,0,0,0-.684.466L21.99,52.446H18.752a.717.717,0,1,0,0,1.435h3.742a.738.738,0,0,0,.684-.467l1.259-3.228,1.727,4.842a.756.756,0,0,0,.611.467h.072a.707.707,0,0,0,.611-.323l1.871-2.905.719,1.256a.742.742,0,0,0,.612.359H46.887a2.588,2.588,0,0,0,5.073-.717,2.743,2.743,0,0,0-2.7-2.583m0,3.694a1.148,1.148,0,1,1,1.152-1.148,1.135,1.135,0,0,1-1.152,1.148" transform="translate(-9.577 -25.189)" fill="#233f77"/>
    <path id="Caminho_11340" data-name="Caminho 11340" d="M13.96,56.7a1.792,1.792,0,0,1-.755-.18A41.26,41.26,0,0,1,6.44,51.791C2.195,47.989,0,44.259,0,40.6a8.223,8.223,0,0,1,14-5.953,8.223,8.223,0,0,1,14,5.953,8.531,8.531,0,0,1-.144,1.65.713.713,0,0,1-1.4-.251,9.182,9.182,0,0,0,.144-1.4,6.853,6.853,0,0,0-6.8-6.886,6.742,6.742,0,0,0-5.181,2.439.648.648,0,0,1-.54.251.705.705,0,0,1-.54-.251,6.8,6.8,0,0,0-5.181-2.439A6.876,6.876,0,0,0,1.439,40.6c0,3.981,3.238,7.675,5.973,10.078a41.5,41.5,0,0,0,6.476,4.555c.036.036.073.036.144,0a36.157,36.157,0,0,0,9.426-7.568.716.716,0,0,1,1.115.9,38.794,38.794,0,0,1-9.858,7.926,1.331,1.331,0,0,1-.755.215" transform="translate(0 -17.145)" fill="#233f77"/>
    <path id="Caminho_11341" data-name="Caminho 11341" d="M121.9,38.75c.244,0,.244.121.366.4l3.982,15.4c.163.6.244.766.569.766.407,0,.488-.161.65-.766l3.941-15.4c.081-.323.122-.4.366-.4h3.291c.244,0,.366.121.325.4l-4.266,16.412c-.731,2.742-1.178,3.025-4.266,3.025-2.966,0-3.454-.282-4.225-3.025l-4.307-16.412c-.081-.323.041-.4.325-.4Z" transform="translate(-62.834 -20.581)" fill="#233f77"/>
    <path id="Caminho_11342" data-name="Caminho 11342" d="M161.3,39.6a1.951,1.951,0,0,1-2.194,2.056A2,2,0,0,1,156.83,39.6c0-1.291.813-2.057,2.275-2.057A1.932,1.932,0,0,1,161.3,39.6m-.731,3.952a.322.322,0,0,1,.366.363V57.386c0,.282-.122.4-.366.4h-3.006c-.244,0-.366-.121-.366-.4V43.917a.322.322,0,0,1,.366-.363Z" transform="translate(-83.297 -19.942)" fill="#233f77"/>
    <path id="Caminho_11343" data-name="Caminho 11343" d="M173.937,41.912c.244-.081.406.121.406.363V45.9H176.7c.285,0,.447.121.447.363v2.016c0,.242-.163.363-.447.363h-2.357v6.936c0,1.089.366,1.29,1.5,1.29H176.9c.325,0,.447.121.447.363v2.177c0,.323-.122.444-.407.484a12.871,12.871,0,0,1-2.194.242c-2.194,0-4.225-.081-4.225-3.266V48.727h-1.5c-.285,0-.407-.121-.407-.363V46.348c0-.242.122-.363.407-.363h1.5V43.162a.372.372,0,0,1,.366-.4Z" transform="translate(-89.556 -22.251)" fill="#233f77"/>
    <path id="Caminho_11344" data-name="Caminho 11344" d="M200.856,54.458v8.791a.737.737,0,0,1-.569.806,28.581,28.581,0,0,1-5.81.524c-3.86,0-5.891-.4-5.932-4.4.04-3.427,1.828-4.194,5.242-4.194h3.25V55.1c0-1.21-.772-1.774-2.4-1.774h-4.631c-.284,0-.366-.081-.366-.363v-2.1c0-.323.122-.363.366-.4a22.43,22.43,0,0,1,4.631-.363c5.079,0,6.216,1.613,6.216,4.355m-6.744,4.033c-1.341,0-1.788.444-1.788,1.532,0,1.21.569,1.573,2.193,1.573a12.117,12.117,0,0,0,2.56-.242V58.531h-2.966Z" transform="translate(-100.142 -26.611)" fill="#233f77"/>
    <path id="Caminho_11345" data-name="Caminho 11345" d="M223.286,38.75a.322.322,0,0,1,.365.363V58.025c0,.283-.121.4-.365.4h-3.007c-.244,0-.365-.12-.365-.4V39.113a.322.322,0,0,1,.365-.363Z" transform="translate(-116.803 -20.581)" fill="#233f77"/>
    <path id="Caminho_11346" data-name="Caminho 11346" d="M254.549,38.93c.325.121.446.242.446.444V41.43c0,.323-.162.444-.487.444h-6.095c-1.585,0-2.357.524-2.357,1.653v.363c0,.887.366,1.492,1.5,1.9l4.795,1.855c2.479.968,3.575,2.177,3.575,5.121v.726c0,3.75-2.965,4.879-7.395,4.879a41.859,41.859,0,0,1-6.338-.524.5.5,0,0,1-.446-.565V55.343c0-.323.162-.444.488-.444h7.272c1.544,0,2.316-.444,2.316-1.573V53c0-1.089-.528-1.613-1.829-2.1l-5-1.855c-2.112-.806-3.047-2.258-3.047-5.2v-.565c0-3.751,2.642-4.88,7.192-4.88a25.858,25.858,0,0,1,5.4.524" transform="translate(-128.401 -20.399)" fill="#233f77"/>
    <path id="Caminho_11347" data-name="Caminho 11347" d="M279.581,39.6a1.951,1.951,0,0,1-2.193,2.056,2,2,0,0,1-2.275-2.056c0-1.291.813-2.057,2.275-2.057a1.932,1.932,0,0,1,2.193,2.057m-.731,3.952a.322.322,0,0,1,.366.363V57.386c0,.282-.122.4-.366.4h-3.006c-.244,0-.366-.121-.366-.4V43.917a.322.322,0,0,1,.366-.363Z" transform="translate(-146.12 -19.942)" fill="#233f77"/>
    <path id="Caminho_11348" data-name="Caminho 11348" d="M300.462,50.588a.593.593,0,0,1,.528.645V64.177c-.04,3.831-.772,5.565-6.3,5.565a30.659,30.659,0,0,1-4.754-.363c-.244-.04-.366-.121-.366-.4V67.041c0-.282.122-.363.366-.363h4.428c2.275,0,2.8-.524,2.8-2.178v-.161a16.714,16.714,0,0,1-3.128.282c-4.672,0-5.932-1.613-5.932-7.46,0-5.565,1.3-7.057,6.7-7.057a33.062,33.062,0,0,1,5.648.484m-5.81,2.782c-2.478,0-2.722.968-2.722,3.952,0,3.267.365,3.992,2.966,3.992a14.736,14.736,0,0,0,2.275-.161V53.37Z" transform="translate(-153.024 -26.612)" fill="#233f77"/>
    <path id="Caminho_11349" data-name="Caminho 11349" d="M333.455,56.192v7.863a.363.363,0,0,1-.406.4h-3.007c-.244,0-.366-.121-.366-.4v-6.9c0-3.629-.365-3.831-2.762-3.831h-2.357V64.056c0,.282-.122.4-.366.4h-3.047c-.244,0-.365-.121-.365-.4V50.909c0-.323.121-.323.365-.363a33.549,33.549,0,0,1,6.135-.444c4.916,0,6.176.927,6.176,6.089" transform="translate(-170.375 -26.611)" fill="#233f77"/>
    <path id="Caminho_11350" data-name="Caminho 11350" d="M361.652,50.426c.325.081.406.161.406.4v1.936c0,.282-.121.4-.446.4H356.98c-1.016,0-1.5.282-1.5.927v.242c0,.484.325.847,1.219,1.17l3.29,1.129a3.526,3.526,0,0,1,2.682,3.831v.4c0,2.944-2.194,3.71-5.444,3.71-2.235,0-4.063-.121-5.323-.242-.325,0-.447-.121-.447-.363V61.918c0-.282.121-.363.447-.363h5.241c1.341,0,1.788-.161,1.788-.847v-.242c0-.484-.285-.806-1.422-1.21l-3.17-1.129a3.694,3.694,0,0,1-2.6-3.871v-.484c0-2.742,2.113-3.669,5.81-3.669a26.485,26.485,0,0,1,4.1.323" transform="translate(-186.668 -26.611)" fill="#233f77"/>
  </g>
</svg>
