<svg id="Grupo_9558" data-name="Grupo 9558" xmlns="http://www.w3.org/2000/svg" width="103.86" height="29.776" viewBox="0 0 103.86 29.776">
  <path id="Caminho_11680" data-name="Caminho 11680" d="M2347.715,29.775h-92.677a5.592,5.592,0,0,1-5.592-5.592V5.591A5.592,5.592,0,0,1,2255.038,0h92.677a5.592,5.592,0,0,1,5.592,5.592V24.183a5.592,5.592,0,0,1-5.592,5.592" transform="translate(-2249.446 0.001)"/>
  <path id="Caminho_11681" data-name="Caminho 11681" d="M2449.058,198.814c-1.354-.212-2.405-1.781-2.405-3.686a3.764,3.764,0,0,1,1.916-3.547.217.217,0,0,0,.1-.321,4.411,4.411,0,0,0-3.824-1.972c-1.447,0-1.916.919-3.5.973-1.58-.054-2.049-.973-3.5-.973-7.018,0-6.314,12.531.287,15.373.922.315,1.451-.824,3.21-.881,1.759.057,2.288,1.2,3.21.881a8.906,8.906,0,0,0,4.676-5.563.218.218,0,0,0-.176-.284" transform="translate(-2423.652 -179.765)" fill="#fff"/>
  <path id="Caminho_11682" data-name="Caminho 11682" d="M2596.928,100.332a3.772,3.772,0,0,0,3.655-4.313.129.129,0,0,0-.144-.122,3.772,3.772,0,0,0-3.655,4.313.129.129,0,0,0,.144.122" transform="translate(-2579.304 -91.072)" fill="#fff"/>
  <path id="Caminho_11683" data-name="Caminho 11683" d="M2901.3,278.6h-3.625l-.84,2.547h-1.816l3.5-9.852h1.987l3.5,9.852h-1.858Zm-3.216-1.359h2.8l-1.372-4.206h-.048Z" transform="translate(-2862.543 -257.642)" fill="#fff"/>
  <path id="Caminho_11684" data-name="Caminho 11684" d="M3097.846,318.192a5.046,5.046,0,0,1,.007,5.565,2.737,2.737,0,0,1-2.247,1.031,2.42,2.42,0,0,1-2.342-1.318h-.034V327.1h-1.7v-9.859h1.659V318.5h.034a2.29,2.29,0,0,1,.942-.976,2.8,2.8,0,0,1,1.413-.362,2.771,2.771,0,0,1,2.267,1.031m-1.413,4.534a3.24,3.24,0,0,0,0-3.5,1.71,1.71,0,0,0-2.7.007,3.217,3.217,0,0,0,0,3.482,1.721,1.721,0,0,0,2.7.007" transform="translate(-3049.166 -301.204)" fill="#fff"/>
  <path id="Caminho_11685" data-name="Caminho 11685" d="M3262.736,318.192a5.046,5.046,0,0,1,.007,5.565,2.737,2.737,0,0,1-2.246,1.031,2.42,2.42,0,0,1-2.342-1.318h-.034V327.1h-1.7v-9.859h1.659V318.5h.034a2.292,2.292,0,0,1,.942-.976,2.8,2.8,0,0,1,1.413-.362,2.771,2.771,0,0,1,2.267,1.031m-1.413,4.534a3.24,3.24,0,0,0,0-3.5,1.709,1.709,0,0,0-2.7.007,3.215,3.215,0,0,0,0,3.482,1.72,1.72,0,0,0,2.7.007" transform="translate(-3205.76 -301.204)" fill="#fff"/>
  <path id="Caminho_11686" data-name="Caminho 11686" d="M3480.016,275.278a1.5,1.5,0,0,0,.7,1.092,2.654,2.654,0,0,0,1.516.41,2.484,2.484,0,0,0,1.454-.4,1.194,1.194,0,0,0,.56-1.011,1.048,1.048,0,0,0-.41-.86,3.394,3.394,0,0,0-1.338-.553l-1.277-.3q-2.676-.615-2.676-2.7a2.587,2.587,0,0,1,1.031-2.123,4.118,4.118,0,0,1,2.636-.806,4.043,4.043,0,0,1,2.622.806,2.666,2.666,0,0,1,1.024,2.1h-1.679a1.445,1.445,0,0,0-.6-1.086,2.63,2.63,0,0,0-2.731-.014,1.171,1.171,0,0,0-.512.99.959.959,0,0,0,.4.8,3.556,3.556,0,0,0,1.3.526l1.133.259a4.556,4.556,0,0,1,2.171,1,2.333,2.333,0,0,1,.676,1.755,2.683,2.683,0,0,1-1.052,2.226,4.471,4.471,0,0,1-2.833.819,4.405,4.405,0,0,1-2.738-.785,2.709,2.709,0,0,1-1.092-2.151Z" transform="translate(-3416.484 -254.549)" fill="#fff"/>
  <path id="Caminho_11687" data-name="Caminho 11687" d="M3647.136,285.676v1.666h1.413v1.318h-1.413v3.933a.8.8,0,0,0,.9.908,4.072,4.072,0,0,0,.505-.034v1.3a4.41,4.41,0,0,1-.894.068,2.506,2.506,0,0,1-1.7-.464,2.023,2.023,0,0,1-.512-1.55V288.66h-1.017v-1.318h1.017v-1.666Z" transform="translate(-3574.237 -271.303)" fill="#fff"/>
  <path id="Caminho_11688" data-name="Caminho 11688" d="M3742.421,323.4a4.533,4.533,0,0,1,.007-5.612,3.84,3.84,0,0,1,5.237,0,4.533,4.533,0,0,1,.006,5.612,3.858,3.858,0,0,1-5.25,0m4-.983a3.6,3.6,0,0,0-.007-3.646,1.757,1.757,0,0,0-2.738,0,3.585,3.585,0,0,0,0,3.646,1.611,1.611,0,0,0,1.366.656,1.635,1.635,0,0,0,1.379-.656" transform="translate(-3666.389 -300.817)" fill="#fff"/>
  <path id="Caminho_11689" data-name="Caminho 11689" d="M3906.884,317.243h1.632v1.3h.034a1.828,1.828,0,0,1,.656-1.017,1.8,1.8,0,0,1,1.133-.362,1.667,1.667,0,0,1,.519.068v1.55a1.706,1.706,0,0,0-.676-.1,1.535,1.535,0,0,0-1.175.457,1.743,1.743,0,0,0-.423,1.243v4.329h-1.7Z" transform="translate(-3823.498 -301.204)" fill="#fff"/>
  <path id="Caminho_11690" data-name="Caminho 11690" d="M3999.644,322.1a2.465,2.465,0,0,1-1.072,1.68,3.705,3.705,0,0,1-2.212.649,3.416,3.416,0,0,1-2.615-1.024,3.92,3.92,0,0,1-.956-2.786,4.02,4.02,0,0,1,.956-2.813,3.27,3.27,0,0,1,2.554-1.052,3.23,3.23,0,0,1,2.492,1,3.808,3.808,0,0,1,.921,2.69V321h-5.223v.1a2,2,0,0,0,.526,1.447,1.815,1.815,0,0,0,1.379.553,1.979,1.979,0,0,0,1.058-.273,1.3,1.3,0,0,0,.594-.731Zm-4.588-3.53a1.954,1.954,0,0,0-.553,1.3h3.537a1.878,1.878,0,0,0-.505-1.3,1.647,1.647,0,0,0-1.236-.492,1.7,1.7,0,0,0-1.243.492" transform="translate(-3905.081 -300.818)" fill="#fff"/>
  <path id="Caminho_11691" data-name="Caminho 11691" d="M2912.748,82.227h-2.055v5.735h2.055a2.613,2.613,0,0,0,2-.759,2.967,2.967,0,0,0,.715-2.118,2.932,2.932,0,0,0-.715-2.107,2.629,2.629,0,0,0-2-.751m1.319,4.424a1.8,1.8,0,0,1-1.4.54h-1.081v-4.2h1.081a1.8,1.8,0,0,1,1.4.541,2.728,2.728,0,0,1,0,3.116" transform="translate(-2877.425 -78.09)" fill="#fff"/>
  <path id="Caminho_11692" data-name="Caminho 11692" d="M3018.754,109.323a1.924,1.924,0,0,0-1.487.6,2.626,2.626,0,0,0,0,3.227,2.156,2.156,0,0,0,2.977,0,2.637,2.637,0,0,0,0-3.231,1.928,1.928,0,0,0-1.486-.6m.859,3.315a1.133,1.133,0,0,1-1.717,0,2.11,2.11,0,0,1,0-2.2,1.126,1.126,0,0,1,1.717,0,2.134,2.134,0,0,1,0,2.2" transform="translate(-2978.109 -103.823)" fill="#fff"/>
  <path id="Caminho_11693" data-name="Caminho 11693" d="M3108.911,113.848h-.016l-.918-3.418h-.826l-.914,3.418h-.016l-.8-3.418h-.858l1.192,4.316h.886l.91-3.251h.02l.918,3.251h.89l1.188-4.316h-.851Z" transform="translate(-3061.538 -104.874)" fill="#fff"/>
  <path id="Caminho_11694" data-name="Caminho 11694" d="M3236.993,109.482a1.445,1.445,0,0,0-1.4.775h-.016v-.727h-.823v4.316h.862v-2.492a1.146,1.146,0,0,1,.3-.823,1.027,1.027,0,0,1,.783-.31.944.944,0,0,1,.723.266,1.049,1.049,0,0,1,.251.755v2.6h.862V111.08a1.629,1.629,0,0,0-.41-1.172,1.5,1.5,0,0,0-1.128-.425" transform="translate(-3185.18 -103.974)" fill="#fff"/>
  <rect id="Retângulo_18242" data-name="Retângulo 18242" width="0.862" height="5.994" transform="translate(54.249 3.878)" fill="#fff"/>
  <path id="Caminho_11695" data-name="Caminho 11695" d="M3361.3,109.323a1.921,1.921,0,0,0-1.486.6,2.625,2.625,0,0,0,0,3.227,2.156,2.156,0,0,0,2.977,0,2.639,2.639,0,0,0,0-3.231,1.93,1.93,0,0,0-1.487-.6m.859,3.315a1.133,1.133,0,0,1-1.717,0,2.11,2.11,0,0,1,0-2.2,1.126,1.126,0,0,1,1.717,0,2.134,2.134,0,0,1,0,2.2" transform="translate(-3303.419 -103.823)" fill="#fff"/>
  <path id="Caminho_11696" data-name="Caminho 11696" d="M3453.533,109.709a2.192,2.192,0,0,0-2.472-.008,1.215,1.215,0,0,0-.5.95h.807a.7.7,0,0,1,.294-.449,1.19,1.19,0,0,1,1.26.028.7.7,0,0,1,.238.568v.334l-1.165.068a2.234,2.234,0,0,0-1.224.374,1.05,1.05,0,0,0-.425.886,1.175,1.175,0,0,0,.405.93,1.555,1.555,0,0,0,1.053.35,1.641,1.641,0,0,0,.815-.207,1.32,1.32,0,0,0,.549-.556h.02v.719h.823v-2.961a1.256,1.256,0,0,0-.473-1.025m-.377,2.365a.89.89,0,0,1-.322.7,1.2,1.2,0,0,1-.8.274.97.97,0,0,1-.6-.167.518.518,0,0,1-.223-.441q0-.58.894-.636l1.049-.072Z" transform="translate(-3389.924 -103.823)" fill="#fff"/>
  <path id="Caminho_11697" data-name="Caminho 11697" d="M3539.721,79.484h-.02a1.4,1.4,0,0,0-1.359-.759,1.622,1.622,0,0,0-1.308.6,2.787,2.787,0,0,0,0,3.2,1.625,1.625,0,0,0,1.315.6,1.424,1.424,0,0,0,1.379-.775h.016v.731h.835V77.091h-.859Zm-.314,2.508a1.073,1.073,0,0,1-1.677,0,1.957,1.957,0,0,1,0-2.138,1.073,1.073,0,0,1,1.677,0,1.942,1.942,0,0,1,0,2.13" transform="translate(-3471.776 -73.213)" fill="#fff"/>
  <path id="Caminho_11698" data-name="Caminho 11698" d="M3670.661,109.323a1.922,1.922,0,0,0-1.486.6,2.625,2.625,0,0,0,0,3.227,2.156,2.156,0,0,0,2.977,0,2.639,2.639,0,0,0,0-3.231,1.929,1.929,0,0,0-1.487-.6m.859,3.315a1.133,1.133,0,0,1-1.717,0,2.11,2.11,0,0,1,0-2.2,1.126,1.126,0,0,1,1.717,0,2.134,2.134,0,0,1,0,2.2" transform="translate(-3597.219 -103.823)" fill="#fff"/>
  <path id="Caminho_11699" data-name="Caminho 11699" d="M3765.739,109.482a1.445,1.445,0,0,0-1.4.775h-.016v-.727h-.823v4.316h.862v-2.492a1.146,1.146,0,0,1,.3-.823,1.027,1.027,0,0,1,.783-.31.944.944,0,0,1,.723.266,1.052,1.052,0,0,1,.251.755v2.6h.862V111.08a1.629,1.629,0,0,0-.41-1.172,1.5,1.5,0,0,0-1.128-.425" transform="translate(-3687.324 -103.974)" fill="#fff"/>
  <path id="Caminho_11700" data-name="Caminho 11700" d="M3887.8,91.153h-.858v.97h-.6v.68h.6v2.5a1.211,1.211,0,0,0,.274.894,1.286,1.286,0,0,0,.922.27,2.1,2.1,0,0,0,.485-.044v-.68a2.073,2.073,0,0,1-.294.02q-.528,0-.529-.548V92.8h.827v-.68h-.827Z" transform="translate(-3803.989 -86.567)" fill="#fff"/>
  <path id="Caminho_11701" data-name="Caminho 11701" d="M3949.134,78.721a1.435,1.435,0,0,0-1.4.775h-.02v-2.4h-.854v5.994h.862V80.612a1.145,1.145,0,0,1,.31-.835,1.068,1.068,0,0,1,.807-.318,1,1,0,0,1,.743.274,1.034,1.034,0,0,1,.27.759v2.591h.858V80.326a1.6,1.6,0,0,0-.429-1.169,1.539,1.539,0,0,0-1.145-.437" transform="translate(-3861.459 -73.213)" fill="#fff"/>
  <path id="Caminho_11702" data-name="Caminho 11702" d="M4040.606,111.755v-.3a2.223,2.223,0,0,0-.521-1.554,1.807,1.807,0,0,0-1.411-.576,1.852,1.852,0,0,0-1.451.608,2.339,2.339,0,0,0-.545,1.622,2.265,2.265,0,0,0,.545,1.6,1.927,1.927,0,0,0,1.486.592,2.1,2.1,0,0,0,1.244-.366,1.4,1.4,0,0,0,.608-.95h-.823a.791.791,0,0,1-.362.449,1.23,1.23,0,0,1-.652.167,1.118,1.118,0,0,1-.854-.342,1.248,1.248,0,0,1-.322-.9v-.052Zm-2.707-1.419a1.039,1.039,0,0,1,.771-.31,1.011,1.011,0,0,1,.763.306,1.177,1.177,0,0,1,.31.811h-2.19a1.222,1.222,0,0,1,.346-.807" transform="translate(-3946.762 -103.823)" fill="#fff"/>
</svg>
